<?xml version="1.0" encoding="UTF-8"?>
<svg width="17px" height="20px" viewBox="0 0 17 20" version="1.1" xmlns="http://www.w3.org/2000/svg" xmlns:xlink="http://www.w3.org/1999/xlink">
    <!-- Generator: Sketch 55.2 (78181) - https://sketchapp.com -->
    <title>D</title>
    <desc>Created with Sketch.</desc>
    <g id="Page-1" stroke="none" stroke-width="1" fill="none" fill-rule="evenodd">
        <g id="Group-59-Copy-16" transform="translate(-306.000000, -50.000000)" fill="#000000">
            <g id="mol/context/menu-copy-2">
                <g id="Group-7" transform="translate(0.000000, 8.000000)">
                    <g id="OTHER-ICONS" transform="translate(17.000000, 30.000000)">
                        <g id="Group-5">
                            <g id="Group-6" transform="translate(255.000000, 1.000000)">
                                <path d="M34,29.197709 C34,30.2909035 34.7094213,30.9999 35.8030167,30.9999 L41.0710027,31 C44.2136262,31 46.7843906,29.9371053 48.5321822,28.0764146 L34,28.0764146 L34,29.197709 Z M41.0710027,11.0001 L35.8030167,11 C34.7094213,11 34,11.7090965 34,12.802291 L34,13.9235854 L48.5321822,13.9235854 C46.7843906,12.0628947 44.2136262,11.0001 41.0710027,11.0001 L41.0710027,11.0001 Z M45.6683851,23.8497358 C45.6683851,24.7341313 46.2447461,25.3079285 47.1333486,25.3079285 L50.2899784,25.3079285 C50.6478405,24.4203329 50.8882494,23.4445378 51,22.391543 L47.1333486,22.391543 C46.2447461,22.391543 45.6683851,22.9652402 45.6683851,23.8497358 L45.6683851,23.8497358 Z M41.2930033,18.1574642 C41.2930033,19.0419598 41.8693644,19.6156569 42.7579668,19.6156569 L51,19.6156569 C50.8882494,18.5626622 50.6478405,17.5868671 50.2899784,16.6992715 L42.7579668,16.6992715 C41.8693644,16.6992715 41.2930033,17.2729686 41.2930033,18.1574642 L41.2930033,18.1574642 Z M42.7569664,23.8497358 C42.7569664,22.9652402 42.1806053,22.391543 41.2920028,22.391543 L34,22.391543 L34,25.3079285 L41.2920028,25.3079285 C42.1806053,25.3079285 42.7569664,24.7342313 42.7569664,23.8497358 L42.7569664,23.8497358 Z M38.3815846,18.1574642 C38.3815846,17.2729686 37.8052235,16.6992715 36.9166211,16.6992715 L34,16.6992715 L34,19.6156569 L36.9166211,19.6156569 C37.8052235,19.6156569 38.3815846,19.0419598 38.3815846,18.1574642 L38.3815846,18.1574642 Z" id="D"></path>
                            </g>
                        </g>
                    </g>
                </g>
            </g>
        </g>
    </g>
</svg>