<svg width="17" height="20" xmlns="http://www.w3.org/2000/svg">
    <path d="M0 18.198C0 19.29.71 20 1.803 20h5.268c3.143 0 5.713-1.063 7.461-2.924H0v1.122zM7.071 0H1.803C.709 0 0 .71 0 1.802v1.122h14.532C12.784 1.063 10.214 0 7.071 0zm4.597 12.85c0 .884.577 1.458 1.465 1.458h3.157c.358-.888.598-1.863.71-2.916h-3.867c-.888 0-1.465.573-1.465 1.458zM7.293 7.157c0 .885.576 1.459 1.465 1.459H17a10.838 10.838 0 00-.71-2.917H8.758c-.889 0-1.465.574-1.465 1.458zm1.464 5.693c0-.885-.576-1.458-1.465-1.458H0v2.916h7.292c.889 0 1.465-.574 1.465-1.458zM4.382 7.157c0-.884-.577-1.458-1.465-1.458H0v2.917h2.917c.888 0 1.465-.574 1.465-1.459z" fill="#0062FF" fill-rule="evenodd"/>
</svg>
